<?xml version="1.0" standalone="no"?>
<!DOCTYPE svg PUBLIC "-//W3C//DTD SVG 20010904//EN"
 "http://www.w3.org/TR/2001/REC-SVG-20010904/DTD/svg10.dtd">
<svg version="1.0" xmlns="http://www.w3.org/2000/svg"
 width="640.000000pt" height="640.000000pt" viewBox="0 0 640.000000 640.000000"
 preserveAspectRatio="xMidYMid meet">
<metadata>
Created by potrace 1.14, written by Peter Selinger 2001-2017
</metadata>
<g transform="translate(0.000000,640.000000) scale(0.100000,-0.100000)"
fill="#000000" stroke="none">
<path d="M2980 6394 c-451 -41 -806 -136 -1175 -314 -890 -431 -1541 -1266
-1739 -2232 -48 -233 -60 -363 -60 -648 0 -285 12 -415 60 -648 255 -1243
1243 -2231 2486 -2486 233 -48 363 -60 648 -60 285 0 415 12 648 60 1243 255
2231 1243 2486 2486 48 233 60 363 60 648 0 285 -12 415 -60 648 -274 1334
-1376 2353 -2734 2527 -119 16 -522 28 -620 19z m346 -1255 c273 -38 531 -180
671 -372 l38 -52 5 170 5 170 330 0 330 0 0 -1240 c0 -1126 -2 -1251 -18
-1362 -43 -302 -139 -556 -289 -762 -68 -93 -236 -252 -337 -320 -287 -190
-621 -283 -970 -268 -220 10 -419 57 -608 143 -238 108 -461 298 -602 512 -52
79 -142 262 -135 274 3 4 175 8 384 8 l378 0 64 -63 c112 -112 242 -187 393
-228 116 -32 346 -32 460 -1 278 76 489 267 584 528 35 95 61 215 61 279 l0
46 -48 -58 c-167 -200 -387 -327 -652 -374 -121 -22 -364 -17 -490 10 -292 62
-548 207 -766 433 -247 257 -383 566 -414 942 -27 342 56 670 242 947 76 114
234 280 348 365 187 140 452 247 685 277 66 9 278 6 351 -4z"/>
<path d="M3050 4515 c-348 -74 -594 -328 -661 -682 -20 -105 -7 -330 25 -436
112 -375 432 -621 806 -619 223 1 407 84 567 256 115 123 195 290 223 468 20
124 9 315 -25 418 -95 295 -314 511 -590 585 -83 23 -263 28 -345 10z"/>
<path d="M5890 755 c-67 -21 -150 -83 -193 -145 -53 -76 -70 -143 -65 -249 3
-74 9 -95 37 -148 91 -171 278 -250 457 -194 127 39 216 128 255 255 56 179
-23 365 -194 457 -56 30 -71 33 -157 36 -63 2 -110 -2 -140 -12z"/>
</g>
</svg>
