<svg version="1.0" xmlns="http://www.w3.org/2000/svg" width="853.333" height="853.333" viewBox="0 0 640 640" preserveAspectRatio="xMidYMid meet"><g fill="#000" stroke="none"><path d="M298 .6C252.9 4.7 217.4 14.2 180.5 32 91.5 75.1 26.4 158.6 6.6 255.2c-4.8 23.3-6 36.3-6 64.8s1.2 41.5 6 64.8c25.5 124.3 124.3 223.1 248.6 248.6 23.3 4.8 36.3 6 64.8 6s41.5-1.2 64.8-6c124.3-25.5 223.1-124.3 248.6-248.6 4.8-23.3 6-36.3 6-64.8s-1.2-41.5-6-64.8C606 121.8 495.8 19.9 360 2.5 348.1.9 307.8-.3 298 .6zm34.6 125.5c27.3 3.8 53.1 18 67.1 37.2l3.8 5.2.5-17 .5-17h66v124c0 112.6-.2 125.1-1.8 136.2-4.3 30.2-13.9 55.6-28.9 76.2-6.8 9.3-23.6 25.2-33.7 32-28.7 19-62.1 28.3-97 26.8-22-1-41.9-5.7-60.8-14.3-23.8-10.8-46.1-29.8-60.2-51.2-5.2-7.9-14.2-26.2-13.5-27.4.3-.4 17.5-.8 38.4-.8h37.8l6.4 6.3c11.2 11.2 24.2 18.7 39.3 22.8 11.6 3.2 34.6 3.2 46 .1 27.8-7.6 48.9-26.7 58.4-52.8 3.5-9.5 6.1-21.5 6.1-27.9v-4.6l-4.8 5.8c-16.7 20-38.7 32.7-65.2 37.4-12.1 2.2-36.4 1.7-49-1-29.2-6.2-54.8-20.7-76.6-43.3-24.7-25.7-38.3-56.6-41.4-94.2-2.7-34.2 5.6-67 24.2-94.7 7.6-11.4 23.4-28 34.8-36.5 18.7-14 45.2-24.7 68.5-27.7 6.6-.9 27.8-.6 35.1.4z"/><path d="M305 188.5c-34.8 7.4-59.4 32.8-66.1 68.2-2 10.5-.7 33 2.5 43.6 11.2 37.5 43.2 62.1 80.6 61.9 22.3-.1 40.7-8.4 56.7-25.6 11.5-12.3 19.5-29 22.3-46.8 2-12.4.9-31.5-2.5-41.8-9.5-29.5-31.4-51.1-59-58.5-8.3-2.3-26.3-2.8-34.5-1zm284 376c-6.7 2.1-15 8.3-19.3 14.5-5.3 7.6-7 14.3-6.5 24.9.3 7.4.9 9.5 3.7 14.8 9.1 17.1 27.8 25 45.7 19.4 12.7-3.9 21.6-12.8 25.5-25.5 5.6-17.9-2.3-36.5-19.4-45.7-5.6-3-7.1-3.3-15.7-3.6-6.3-.2-11 .2-14 1.2z"/></g></svg>