<svg version="1.0" xmlns="http://www.w3.org/2000/svg" width="853.333" height="853.333" viewBox="0 0 640 640" preserveAspectRatio="xMidYMid meet"><g fill="#000" stroke="none"><path d="M292.5 1.1c-61.8 5-123.3 29.7-173 69.5-14.1 11.3-37.6 34.8-48.9 48.9C36.3 162.4 13.5 213 4.6 266c-15.3 91.1 8.4 182.5 66 254.5 11.3 14.1 34.8 37.6 48.9 48.9 72 57.6 163.6 81.4 254.5 66 53.2-8.9 103.2-31.5 146.5-66 14.1-11.3 37.6-34.8 48.9-48.9 34.5-43.3 57.1-93.3 66-146.5 15.4-90.9-8.4-182.5-66-254.5-11.3-14.1-34.8-37.6-48.9-48.9-64.6-51.7-145.1-76.2-228-69.5zM335 126.5c26.7 4.4 49.5 17.2 64.1 36.1l4.4 5.7.5-16.9.5-16.9h66l.3 113c.2 69.9-.1 119.3-.8 129.5-2.9 47.9-16.6 81.7-43.9 109.1-16.7 16.6-34.9 27.7-58.4 35.4-66.1 21.6-138.4 0-176.2-52.5-6.4-8.9-17.8-30.6-16.9-32.1.3-.5 17.4-.9 38.1-.9h37.6l7.1 6.8c12 11.4 24 18.2 39.1 22.3 6.5 1.8 10.9 2.2 23 2.3 18.4 0 24.5-1.3 40.5-9.2 10.4-5 12.4-6.4 21-15.1 10.4-10.5 16.3-19.8 20.6-32.1 3-8.5 5.4-20.4 5.4-26.6v-4.5l-4.9 5.8c-19.2 23-43.7 35.4-75.8 38.5-33.1 3.2-68.2-7.4-97.1-29.2-10.4-7.8-26.4-24.6-33.4-35-34.8-52.2-35-121.6-.6-171.8 7.5-10.8 24.1-27.7 35-35.6 31.2-22.3 69.4-31.8 104.8-26.1z"/><path d="M306.1 188.1c-28.5 5.1-54.3 27.3-63.7 54.9-3.8 11.2-4.7 18.9-4.1 34.4.6 16 2.2 23.3 7.7 35.2 5.2 11.3 10.5 18.7 19.2 27 13.8 13.1 29.2 20.2 48.1 22.4 40.3 4.7 78-24.7 86.8-67.5 2.6-12.5 2.5-30.3-.1-41.3-7-29-28.6-53.1-56-62.2-7.9-2.7-11.2-3.3-21-3.6-6.3-.1-13.9.1-16.9.7zm281.8 376.7c-10.9 4.4-18.9 12.5-23 23.2-1.7 4.6-2 7.1-1.7 15 .4 8.2.9 10.3 3.5 15.5 6.2 12.2 18.2 20.2 31.6 21.2 16.6 1.3 30.9-7.2 38.5-22.7 2.3-4.8 2.7-6.7 2.7-15.5s-.3-10.7-2.7-15.8c-3.5-7.5-11.4-15.7-18.5-19.2-5-2.5-7.2-2.9-15.8-3.2-7.9-.3-10.9.1-14.6 1.5z"/></g></svg>