<svg width="189" height="40" viewBox="0 0 189 40" fill="none" xmlns="http://www.w3.org/2000/svg">
<path d="M59.349 27H64.061C68.013 27 70.692 24.397 70.692 20.673C70.692 16.949 68.013 14.327 64.061 14.327H59.349V27ZM61.572 25.043V16.284H64.061C66.892 16.284 68.412 18.222 68.412 20.673C68.412 23.067 66.816 25.043 64.061 25.043H61.572ZM76.9233 27.228C79.8683 27.228 81.6543 25.043 81.6543 22.402C81.6543 19.78 79.8683 17.595 76.9233 17.595C74.0163 17.595 72.2113 19.78 72.2113 22.402C72.2113 25.043 74.0163 27.228 76.9233 27.228ZM76.9233 25.461C75.2323 25.461 74.2823 24.036 74.2823 22.402C74.2823 20.787 75.2323 19.362 76.9233 19.362C78.6333 19.362 79.5833 20.787 79.5833 22.402C79.5833 24.036 78.6333 25.461 76.9233 25.461ZM83.1029 22.402C83.1029 25.195 85.0599 27.228 87.8529 27.228C89.6389 27.228 90.7219 26.468 91.3679 25.594L90.0569 24.378C89.5439 25.081 88.8409 25.461 87.9479 25.461C86.2759 25.461 85.1739 24.188 85.1739 22.402C85.1739 20.616 86.2759 19.362 87.9479 19.362C88.8409 19.362 89.5439 19.723 90.0569 20.445L91.3679 19.229C90.7219 18.355 89.6389 17.595 87.8529 17.595C85.0599 17.595 83.1029 19.628 83.1029 22.402ZM99.3112 27H101.306V17.823H99.3112V24.264C98.8362 24.891 97.9622 25.461 96.9552 25.461C95.8342 25.461 95.1122 25.024 95.1122 23.599V17.823H93.1172V24.321C93.1172 26.202 94.0862 27.228 96.0622 27.228C97.5062 27.228 98.6462 26.525 99.3112 25.784V27ZM115.145 27H117.14V20.369C117.14 18.507 116.19 17.595 114.499 17.595C113.131 17.595 111.915 18.45 111.383 19.286C111.079 18.279 110.243 17.595 108.875 17.595C107.488 17.595 106.272 18.507 105.892 19.077V17.823H103.897V27H105.892V20.597C106.31 19.989 107.127 19.362 108.001 19.362C109.084 19.362 109.521 20.027 109.521 21.015V27H111.516V20.578C111.915 19.989 112.751 19.362 113.644 19.362C114.708 19.362 115.145 20.027 115.145 21.015V27ZM119.155 22.402C119.155 25.309 121.207 27.228 123.962 27.228C125.425 27.228 126.774 26.772 127.686 25.898L126.774 24.587C126.128 25.233 125.064 25.594 124.171 25.594C122.442 25.594 121.397 24.454 121.245 23.067H128.332V22.592C128.332 19.704 126.565 17.595 123.81 17.595C121.093 17.595 119.155 19.742 119.155 22.402ZM123.81 19.229C125.615 19.229 126.356 20.578 126.394 21.661H121.226C121.321 20.54 122.1 19.229 123.81 19.229ZM136.495 27H138.49V20.54C138.49 18.659 137.502 17.595 135.526 17.595C134.082 17.595 132.904 18.355 132.296 19.077V17.823H130.301V27H132.296V20.597C132.752 19.97 133.626 19.362 134.652 19.362C135.773 19.362 136.495 19.837 136.495 21.262V27ZM143.836 27.228C144.767 27.228 145.356 26.981 145.717 26.639L145.242 25.138C145.09 25.309 144.729 25.461 144.349 25.461C143.779 25.461 143.475 25.005 143.475 24.378V19.571H145.337V17.823H143.475V15.315H141.48V17.823H139.96V19.571H141.48V24.872C141.48 26.392 142.297 27.228 143.836 27.228ZM152.753 27H154.748V20.92C154.748 18.45 152.962 17.595 150.929 17.595C149.466 17.595 148.136 18.07 147.072 19.077L147.889 20.464C148.687 19.685 149.58 19.305 150.606 19.305C151.879 19.305 152.753 19.951 152.753 21.015V22.383C152.088 21.604 151.024 21.205 149.789 21.205C148.288 21.205 146.597 22.079 146.597 24.188C146.597 26.221 148.288 27.228 149.789 27.228C151.005 27.228 152.069 26.791 152.753 26.012V27ZM152.753 24.91C152.297 25.537 151.442 25.86 150.568 25.86C149.447 25.86 148.611 25.214 148.611 24.226C148.611 23.219 149.447 22.573 150.568 22.573C151.442 22.573 152.297 22.896 152.753 23.523V24.91ZM160.09 27.228C161.021 27.228 161.61 26.981 161.971 26.639L161.496 25.138C161.344 25.309 160.983 25.461 160.603 25.461C160.033 25.461 159.729 25.005 159.729 24.378V19.571H161.591V17.823H159.729V15.315H157.734V17.823H156.214V19.571H157.734V24.872C157.734 26.392 158.551 27.228 160.09 27.228ZM164.39 16.303C165.074 16.303 165.625 15.752 165.625 15.068C165.625 14.384 165.074 13.833 164.39 13.833C163.725 13.833 163.155 14.384 163.155 15.068C163.155 15.752 163.725 16.303 164.39 16.303ZM163.402 27H165.397V17.823H163.402V27ZM172.127 27.228C175.072 27.228 176.858 25.043 176.858 22.402C176.858 19.78 175.072 17.595 172.127 17.595C169.22 17.595 167.415 19.78 167.415 22.402C167.415 25.043 169.22 27.228 172.127 27.228ZM172.127 25.461C170.436 25.461 169.486 24.036 169.486 22.402C169.486 20.787 170.436 19.362 172.127 19.362C173.837 19.362 174.787 20.787 174.787 22.402C174.787 24.036 173.837 25.461 172.127 25.461ZM185.071 27H187.066V20.54C187.066 18.659 186.078 17.595 184.102 17.595C182.658 17.595 181.48 18.355 180.872 19.077V17.823H178.877V27H180.872V20.597C181.328 19.97 182.202 19.362 183.228 19.362C184.349 19.362 185.071 19.837 185.071 21.262V27Z" fill="white"/>
<path d="M37.4756 40C38.8526 40 39.9689 38.8837 39.9689 37.5067C39.9689 36.1296 38.8526 35.0133 37.4756 35.0133C36.0985 35.0133 34.9822 36.1296 34.9822 37.5067C34.9822 38.8837 36.0985 40 37.4756 40Z" fill="white"/>
<path d="M20 0C8.97333 0 0 8.97333 0 20C0 31.0267 8.97333 40 20 40C31.0267 40 40 31.0267 40 20C40 8.97333 31.0267 0 20 0ZM29.4089 22.7156C29.4089 31.1333 23.1689 33.0533 19.8578 33.0533C16.2667 33.0533 12.5778 31.1644 11.0667 27.2533H15.8578C17.4978 29.2089 19.5156 29.2089 20.1733 29.2089C22.5378 29.2089 25.3111 27.5689 25.5333 23.7556L25.4711 23.6933C24.9022 24.48 23.2978 26.4978 19.7333 26.4978C15.48 26.4978 10.7822 22.8711 10.7822 17.0089C10.7822 11.5244 15.2578 7.84 19.7022 7.84C23.2933 7.84 24.8089 9.88889 25.28 10.5822H25.3422V8.44H29.4089V22.7156Z" fill="white"/>
<path d="M20.08 11.6844C17.56 11.6844 14.9733 13.7333 14.9733 17.0444C14.9733 20.6044 17.6533 22.6533 20.2044 22.6533C22.7244 22.6533 25.2178 20.5111 25.2178 17.0133C25.2178 14.52 23.2 11.6844 20.08 11.6844Z" fill="white"/>
</svg>
