<svg width="189" height="40" viewBox="0 0 189 40" fill="none" xmlns="http://www.w3.org/2000/svg"><path d="M59.349 27h4.712c3.952 0 6.631-2.603 6.631-6.327 0-3.724-2.679-6.346-6.631-6.346h-4.712V27zm2.223-1.957v-8.759h2.489c2.831 0 4.351 1.938 4.351 4.389 0 2.394-1.596 4.37-4.351 4.37h-2.489zm15.351 2.185c2.945 0 4.731-2.185 4.731-4.826 0-2.622-1.786-4.807-4.73-4.807-2.908 0-4.713 2.185-4.713 4.807 0 2.641 1.805 4.826 4.712 4.826zm0-1.767c-1.69 0-2.64-1.425-2.64-3.059 0-1.615.95-3.04 2.64-3.04 1.71 0 2.66 1.425 2.66 3.04 0 1.634-.95 3.059-2.66 3.059zm6.18-3.059c0 2.793 1.957 4.826 4.75 4.826 1.786 0 2.869-.76 3.515-1.634l-1.311-1.216c-.513.703-1.216 1.083-2.11 1.083-1.671 0-2.773-1.273-2.773-3.059 0-1.786 1.102-3.04 2.774-3.04.893 0 1.596.361 2.109 1.083l1.31-1.216c-.645-.874-1.728-1.634-3.514-1.634-2.793 0-4.75 2.033-4.75 4.807zM99.31 27h1.995v-9.177H99.31v6.441c-.475.627-1.349 1.197-2.356 1.197-1.12 0-1.843-.437-1.843-1.862v-5.776h-1.995v6.498c0 1.881.97 2.907 2.945 2.907a4.398 4.398 0 003.25-1.444V27zm15.834 0h1.995v-6.631c0-1.862-.95-2.774-2.641-2.774-1.368 0-2.584.855-3.116 1.691-.304-1.007-1.14-1.691-2.508-1.691-1.387 0-2.603.912-2.983 1.482v-1.254h-1.995V27h1.995v-6.403c.418-.608 1.235-1.235 2.109-1.235 1.083 0 1.52.665 1.52 1.653V27h1.995v-6.422c.399-.589 1.235-1.216 2.128-1.216 1.064 0 1.501.665 1.501 1.653V27zm4.01-4.598c0 2.907 2.052 4.826 4.807 4.826 1.463 0 2.812-.456 3.724-1.33l-.912-1.311c-.646.646-1.71 1.007-2.603 1.007-1.729 0-2.774-1.14-2.926-2.527h7.087v-.475c0-2.888-1.767-4.997-4.522-4.997-2.717 0-4.655 2.147-4.655 4.807zm4.655-3.173c1.805 0 2.546 1.349 2.584 2.432h-5.168c.095-1.121.874-2.432 2.584-2.432zM136.495 27h1.995v-6.46c0-1.881-.988-2.945-2.964-2.945-1.444 0-2.622.76-3.23 1.482v-1.254h-1.995V27h1.995v-6.403c.456-.627 1.33-1.235 2.356-1.235 1.121 0 1.843.475 1.843 1.9V27zm7.341.228c.931 0 1.52-.247 1.881-.589l-.475-1.501c-.152.171-.513.323-.893.323-.57 0-.874-.456-.874-1.083v-4.807h1.862v-1.748h-1.862v-2.508h-1.995v2.508h-1.52v1.748h1.52v5.301c0 1.52.817 2.356 2.356 2.356zm8.917-.228h1.995v-6.08c0-2.47-1.786-3.325-3.819-3.325-1.463 0-2.793.475-3.857 1.482l.817 1.387c.798-.779 1.691-1.159 2.717-1.159 1.273 0 2.147.646 2.147 1.71v1.368c-.665-.779-1.729-1.178-2.964-1.178-1.501 0-3.192.874-3.192 2.983 0 2.033 1.691 3.04 3.192 3.04 1.216 0 2.28-.437 2.964-1.216V27zm0-2.09c-.456.627-1.311.95-2.185.95-1.121 0-1.957-.646-1.957-1.634 0-1.007.836-1.653 1.957-1.653.874 0 1.729.323 2.185.95v1.387zm7.337 2.318c.931 0 1.52-.247 1.881-.589l-.475-1.501c-.152.171-.513.323-.893.323-.57 0-.874-.456-.874-1.083v-4.807h1.862v-1.748h-1.862v-2.508h-1.995v2.508h-1.52v1.748h1.52v5.301c0 1.52.817 2.356 2.356 2.356zm4.3-10.925c.684 0 1.235-.551 1.235-1.235s-.551-1.235-1.235-1.235c-.665 0-1.235.551-1.235 1.235s.57 1.235 1.235 1.235zM163.402 27h1.995v-9.177h-1.995V27zm8.725.228c2.945 0 4.731-2.185 4.731-4.826 0-2.622-1.786-4.807-4.731-4.807-2.907 0-4.712 2.185-4.712 4.807 0 2.641 1.805 4.826 4.712 4.826zm0-1.767c-1.691 0-2.641-1.425-2.641-3.059 0-1.615.95-3.04 2.641-3.04 1.71 0 2.66 1.425 2.66 3.04 0 1.634-.95 3.059-2.66 3.059zM185.071 27h1.995v-6.46c0-1.881-.988-2.945-2.964-2.945-1.444 0-2.622.76-3.23 1.482v-1.254h-1.995V27h1.995v-6.403c.456-.627 1.33-1.235 2.356-1.235 1.121 0 1.843.475 1.843 1.9V27zM37.476 40a2.493 2.493 0 100-4.987 2.493 2.493 0 000 4.987zM20 0C8.973 0 0 8.973 0 20s8.973 20 20 20 20-8.973 20-20S31.027 0 20 0zm9.409 22.716c0 8.417-6.24 10.337-9.551 10.337-3.591 0-7.28-1.889-8.791-5.8h4.79c1.64 1.956 3.659 1.956 4.316 1.956 2.365 0 5.138-1.64 5.36-5.453l-.062-.063c-.569.787-2.173 2.805-5.738 2.805-4.253 0-8.95-3.627-8.95-9.49 0-5.484 4.475-9.168 8.92-9.168 3.59 0 5.106 2.049 5.577 2.742h.062V8.44h4.067v14.276z" fill="#fff"/><path d="M20.08 11.684c-2.52 0-5.107 2.05-5.107 5.36 0 3.56 2.68 5.61 5.231 5.61 2.52 0 5.014-2.143 5.014-5.64 0-2.494-2.018-5.33-5.138-5.33z" fill="#fff"/></svg>