<?xml version="1.0" encoding="UTF-8" standalone="no"?>
<svg
   xmlns="http://www.w3.org/2000/svg"
   version="1.1"
   viewBox="0 0 700 700">
<g
   style="fill:#93d7e5;fill-opacity:1"
   transform="matrix(1.3111934,0,0,1.3091353,-309.16918,-307.23381)"><path
     d="m 677.1,463.2 c -22.2,-10.3 -31.2,-8.8 -51.5,-19.8 -20.4,-11.1 -32.8,-6.3 -34.9,-5.3 -2.6,1.6 -11.6,7.4 -14,10.8 l 120.2,53.8 c 4.2,-20.7 0.2,-30.2 -19.8,-39.5 z"
     id="path4"
     style="fill:#93d7e5;fill-opacity:1"
     /><path
     d="m 281.6,343.8 c -7.2,0 -13,5.8 -13,12.9 0,7.1 5.9,13 12.9,13 h 0.1 c 7.1,-0.1 12.9,-5.8 12.9,-12.9 0,-3.4 -1.3,-6.7 -3.7,-9.2 -2.5,-2.4 -5.7,-3.7 -9.2,-3.8 z"
     id="path6"
     style="fill:#93d7e5;fill-opacity:1"
     /><path
     d="m 727.9,268.3 c -4.2,-2.1 -9.2,-0.5 -11.4,3.7 l -1.1,2.3 -60.8,115 32.6,15.7 c 0,0 31.1,-82.3 44.6,-125.8 1.7,-4.2 0.1,-8.9 -3.9,-10.9 z"
     id="path8"
     style="fill:#93d7e5;fill-opacity:1"
     /><path
     d="m 357.3,494.7 h 0.7 c 12.4,0 23.1,-10.8 23.4,-23.5 0.2,-6.1 -2.2,-12 -6.6,-16.6 -4.5,-4.7 -10.6,-7.4 -16.9,-7.5 v 0 c -13,0 -23.8,10.7 -24,23.4 -0.3,12.9 10.2,23.8 23.4,24.2 z"
     id="path10"
     style="fill:#93d7e5;fill-opacity:1"
     /><path
     d="m 500,990 c -333.33333,6.66667 -166.66667,3.33333 0,0 z M 358.5,412.7 c 15.4,0.3 30.4,6.9 41.2,18.2 10.8,11.3 16.5,25.8 16.2,41 -0.8,31.6 -26.6,57.3 -57.6,57.3 h -1.7 c -32.1,-1 -57.7,-27.6 -57,-59.4 0.6,-30.9 27.2,-57.1 57.9,-57.1 z m -77,-16.8 c -21.2,0 -39,-17.9 -39,-39.2 0,-21.5 17.6,-39 39.1,-39 10.6,0 20.4,4.2 27.8,11.6 7.4,7.5 11.4,17.3 11.3,27.7 -0.2,21.2 -17.6,38.7 -38.9,38.8 z m 431.8,178.8 c -1.5,4.3 -2.9,8.5 -4.3,12.6 -20.4,56.5 -44.1,104.6 -72.7,146.8 -1.3,1.9 -2.7,3.8 -4.1,5.7 -1.3,1.7 -2.6,3.5 -3.8,5.3 -6.7,10.1 -16.4,15.2 -28.9,15.2 -1.5,0 -3.1,-0.1 -4.7,-0.2 -39.1,-3.7 -77.9,-12.7 -115.2,-26.8 -70.2,-26.4 -128.2,-67.1 -172.5,-121 -8.2,-10 -9.9,-21.6 -4.9,-32.7 4.9,-10.7 14.9,-17 27.4,-17.1 31.8,-0.4 64,-6.7 95.8,-18.7 31.6,-11.9 54.2,-26.9 71.3,-47 3.7,-4.3 6.9,-9.2 10.4,-14.3 1.7,-2.5 3.4,-5.1 5.3,-7.6 l 5.5,-7.8 39.3,18 -6.6,9.6 c -1.9,2.8 -3.7,5.5 -5.6,8.3 -4,6 -8.2,12.3 -12.8,18.2 -15.3,19.4 -27.8,33.2 -53.3,47.4 -27,15 -80.3,34.4 -114.8,41.5 9,7.3 33.3,22.3 41.5,28.3 18.8,-4.3 46.2,-15.5 58.2,-26.6 l 23.6,-21.9 -6,31.6 c -1.8,9.3 -17.5,37.5 -27.3,49.3 6.6,3.1 13.3,6.4 19.7,10.2 8.4,4.9 16.2,4.8 28.6,-0.6 21.5,-9.3 43.6,-36 58.7,-48.9 1.8,-1.6 3.6,-3.2 5.6,-4.9 l 29,-25.5 -8.3,33.1 c -2.8,11 -23.6,45.7 -42.7,74.2 0.9,0.2 1.9,0.4 2.8,0.5 5.4,1 19.4,1.9 24.9,2.7 4.9,0.8 18.3,0.4 23.2,1.2 20.4,-30.5 43.9,-76 59.5,-114.3 4,-9.7 7.6,-19.9 11.2,-29.7 1.7,-4.6 3.3,-9.2 5,-13.8 l 5.3,-14.5 42.2,18 z m 18.6,-48.4 c -0.5,1.8 -1.2,3.5 -1.9,5.4 l -4.7,13 -201,-89.4 4.2,-9.6 c 5.8,-13.6 15.2,-24.2 27.8,-31.6 20.6,-12.1 42.8,-13.5 64.7,-4 23.2,10.1 48,21 72.4,32.3 32.8,15.1 48.6,49.7 38.5,83.9 z m 24.1,-245 c -12.8,35.2 -56.4,158.8 -56.4,158.8 L 618.4,401.8 697.9,257 c 5.1,-9.6 12.4,-14.3 22.3,-14.3 1.7,0 3.6,0.1 5.6,0.4 10.7,1.6 19.5,6.4 26.1,14.3 5.8,7 7.2,15.3 4.1,23.9 z"
     id="path12"
     style="fill:#93d7e5;fill-opacity:1" /></g>
</svg>
