<svg width="11" height="11" viewBox="0 0 11 11" fill="none" xmlns="http://www.w3.org/2000/svg">
<path d="M10.8318 5.1453L5.79013 1.0203C5.65355 0.907999 5.4638 0.885097 5.30338 0.960722C5.14388 1.0368 5.04167 1.19815 5.04167 1.37505V4.53297L0.748451 1.0203C0.611402 0.907999 0.422125 0.885097 0.261701 0.960722C0.102201 1.0368 0 1.19815 0 1.37505V9.62505C0 9.80197 0.102201 9.9633 0.261701 10.0394C0.3245 10.0687 0.391875 10.0834 0.458326 10.0834C0.562375 10.0834 0.665027 10.0481 0.748451 9.9798L5.04165 6.46712V9.62505C5.04165 9.80197 5.14385 9.9633 5.30335 10.0394C5.36615 10.0687 5.43353 10.0834 5.49998 10.0834C5.60403 10.0834 5.70668 10.0481 5.7901 9.9798L10.8318 5.8548C10.9381 5.76772 11 5.63755 11 5.50005C11 5.36255 10.9381 5.2324 10.8318 5.1453Z" fill="white"/>
</svg>
