<svg width="0" height="0" class="hidden">
  <symbol xmlns="http://www.w3.org/2000/svg" viewBox="0 0 511.997 511.997" id="hide">
    <path d="M508.872 478.706L33.292 3.124c-4.167-4.165-10.919-4.165-15.086 0L3.125 18.206c-4.167 4.165-4.167 10.919 0 15.085l88.207 88.208C49.216 154.827 17.378 200.261.509 252.739a10.722 10.722 0 0 0 0 6.521C36.79 372.156 139.467 448 255.999 448c45.581 0 89.41-11.549 128.546-33.288l94.161 94.161c4.167 4.165 10.919 4.165 15.086 0l15.081-15.082c4.166-4.165 4.166-10.919-.001-15.085zm-252.873-73.373c-82.344 0-149.333-66.99-149.333-149.333 0-32.414 10.659-63.681 29.859-89.309l46.375 46.376c-7.676 12.887-12.234 27.445-12.234 42.932 0 47.052 38.281 85.333 85.333 85.333 15.487 0 30.046-4.559 42.932-12.234l46.375 46.375c-25.628 19.201-56.893 29.86-89.307 29.86zm-9-228.052a10.678 10.678 0 0 0 2.292 11.677l73.75 73.75A10.664 10.664 0 0 0 334.718 265c4-1.688 6.583-5.615 6.531-9.958-.531-46.74-37.552-83.76-84.292-84.292-4.25.458-8.271 2.531-9.958 6.531z"></path>
    <path d="M179.613 119.281c3.198 3.208 8.083 4.021 12.146 2.083 20.375-9.75 41.99-14.698 64.24-14.698 82.344 0 149.333 66.99 149.333 149.333 0 22.25-4.948 43.865-14.698 64.24a10.674 10.674 0 0 0 2.083 12.146l36.969 36.969c2 2 4.708 3.125 7.542 3.125h.021a10.72 10.72 0 0 0 7.563-3.156c30.313-30.615 53.375-68.677 66.677-110.063a10.722 10.722 0 0 0 0-6.521c-36.281-112.896-138.958-188.74-255.49-188.74-31.979 0-63.406 5.687-93.417 16.917a10.665 10.665 0 0 0-6.688 7.729 10.669 10.669 0 0 0 2.885 9.802l20.834 20.834z"></path>
  </symbol>
  <symbol xmlns="http://www.w3.org/2000/svg" viewBox="0 0 561 561" id="show">
    <path d="M280.5 89.25C153 89.25 43.35 168.3 0 280.5c43.35 112.2 153 191.25 280.5 191.25S517.65 392.7 561 280.5C517.65 168.3 408 89.25 280.5 89.25zm0 318.75C209.1 408 153 351.9 153 280.5S209.1 153 280.5 153 408 209.1 408 280.5 351.9 408 280.5 408zm0-204c-43.35 0-76.5 33.15-76.5 76.5s33.15 76.5 76.5 76.5 76.5-33.15 76.5-76.5-33.15-76.5-76.5-76.5z"></path>
  </symbol>
</svg>