<svg width="60pt" height="60pt" viewBox="0 0 64 64" xmlns="http://www.w3.org/2000/svg"><g id="fontsvg1728395039073" stroke-linecap="round" fill-rule="evenodd" fill="#93d7e5"><path d="M 41.836 12.266 L 35.977 17.969 L 57.461 21.016 L 54.492 0 L 47.93 6.328 Q 43.477 3.047 38.32 1.563 A 30.849 30.849 0 0 0 29.748 0.336 A 30.504 30.504 0 0 0 27.93 0.391 Q 22.617 0.781 17.695 2.891 A 30.831 30.831 0 0 0 8.633 8.984 A 28.667 28.667 0 0 0 2.634 17.597 A 27.345 27.345 0 0 0 1.914 19.375 A 29.615 29.615 0 0 0 0 29.808 A 29.67 29.67 0 0 0 0.039 31.328 L 8.789 33.047 Q 8.086 28.281 9.492 23.516 Q 10.977 18.672 14.727 15 A 21.386 21.386 0 0 1 19.658 11.382 A 19.822 19.822 0 0 1 20.898 10.781 Q 24.336 9.219 27.93 8.906 A 20.771 20.771 0 0 1 30.176 8.784 A 21.181 21.181 0 0 1 35.117 9.375 A 21.358 21.358 0 0 1 41.836 12.266 Z M 59.883 28.672 L 51.133 27.031 Q 51.836 31.797 50.43 36.563 A 20.013 20.013 0 0 1 45.195 45 A 21.386 21.386 0 0 1 40.264 48.618 A 19.822 19.822 0 0 1 39.023 49.219 Q 35.586 50.781 31.992 51.094 A 20.771 20.771 0 0 1 29.746 51.216 A 21.181 21.181 0 0 1 24.805 50.625 A 21.358 21.358 0 0 1 18.086 47.734 L 23.945 42.031 L 2.461 38.984 L 5.43 60 L 11.992 53.672 Q 16.445 56.953 21.602 58.438 A 30.849 30.849 0 0 0 30.174 59.664 A 30.504 30.504 0 0 0 31.992 59.609 A 32.38 32.38 0 0 0 42.227 57.109 Q 47.227 54.922 51.211 51.016 A 28.58 28.58 0 0 0 56.792 43.442 A 26.626 26.626 0 0 0 58.008 40.625 A 29.615 29.615 0 0 0 59.922 30.192 A 29.67 29.67 0 0 0 59.883 28.672 Z" vector-effect="non-scaling-stroke"/></g></svg>