<?xml version="1.0" standalone="no"?>
<!DOCTYPE svg PUBLIC "-//W3C//DTD SVG 20010904//EN"
 "http://www.w3.org/TR/2001/REC-SVG-20010904/DTD/svg10.dtd">
<svg version="1.0" xmlns="http://www.w3.org/2000/svg"
 width="640.000000pt" height="640.000000pt" viewBox="0 0 640.000000 640.000000"
 preserveAspectRatio="xMidYMid meet">
<metadata>
Created by potrace 1.14, written by Peter Selinger 2001-2017
</metadata>
<g transform="translate(0.000000,640.000000) scale(0.100000,-0.100000)"
fill="#000000" stroke="none">
<path d="M2925 6389 c-618 -50 -1233 -297 -1730 -695 -141 -113 -376 -348
-489 -489 -343 -429 -571 -935 -660 -1465 -153 -911 84 -1825 660 -2545 113
-141 348 -376 489 -489 720 -576 1636 -814 2545 -660 532 89 1032 315 1465
660 141 113 376 348 489 489 345 433 571 933 660 1465 154 909 -84 1825 -660
2545 -113 141 -348 376 -489 489 -646 517 -1451 762 -2280 695z m425 -1254
c267 -44 495 -172 641 -361 l44 -57 5 169 5 169 330 0 330 0 3 -1130 c2 -699
-1 -1193 -8 -1295 -29 -479 -166 -817 -439 -1091 -167 -166 -349 -277 -584
-354 -661 -216 -1384 0 -1762 525 -64 89 -178 306 -169 321 3 5 174 9 381 9
l376 0 71 -68 c120 -114 240 -182 391 -223 65 -18 109 -22 230 -23 184 0 245
13 405 92 104 50 124 64 210 151 104 105 163 198 206 321 30 85 54 204 54 266
l0 45 -49 -58 c-192 -230 -437 -354 -758 -385 -331 -32 -682 74 -971 292 -104
78 -264 246 -334 350 -348 522 -350 1216 -6 1718 75 108 241 277 350 356 312
223 694 318 1048 261z"/>
<path d="M3061 4519 c-285 -51 -543 -273 -637 -549 -38 -112 -47 -189 -41
-344 6 -160 22 -233 77 -352 52 -113 105 -187 192 -270 138 -131 292 -202 481
-224 403 -47 780 247 868 675 26 125 25 303 -1 413 -70 290 -286 531 -560 622
-79 27 -112 33 -210 36 -63 1 -139 -1 -169 -7z"/>
<path d="M5879 752 c-109 -44 -189 -125 -230 -232 -17 -46 -20 -71 -17 -150 4
-82 9 -103 35 -155 62 -122 182 -202 316 -212 166 -13 309 72 385 227 23 48
27 67 27 155 0 88 -3 107 -27 158 -35 75 -114 157 -185 192 -50 25 -72 29
-158 32 -79 3 -109 -1 -146 -15z"/>
</g>
</svg>
